<svg width="1707" height="1598" viewBox="0 0 1707 1598" fill="none" xmlns="http://www.w3.org/2000/svg">
<path d="M803.333 1.46678C709.467 7.33345 620 27.3335 536 61.0668C308.133 152.8 130.667 337.733 48.4 569.333C31.6 616.667 16.8 676.533 9.33333 727.2C4.13333 762.933 0 812.267 0 840.267V853.333H853.333H1706.67V840.267C1706.67 812.267 1702.53 762.933 1697.33 727.2C1678 596 1625.87 466.667 1548.53 358.667C1385.87 131.467 1126.4 -1.59988 849.333 0.133452C833.6 0.266785 812.933 0.933452 803.333 1.46678Z" fill="#F43F5E"/>
<path d="M5.86668 952.933C7.73335 972.133 16.6667 1025.47 19.4667 1034.93C20.1334 1037.2 61.0667 1037.33 853.333 1037.33C1645.6 1037.33 1686.53 1037.2 1687.2 1034.93C1690 1025.47 1698.93 972.133 1700.8 952.933L1701.73 944H853.333H4.93335L5.86668 952.933Z" fill="#F43F5E"/>
<path d="M46.6666 1131.73C46.6666 1135.2 65.4666 1182.53 76.2666 1206.27L84.4 1224H853.333H1622.27L1630.4 1206.27C1641.2 1182.53 1660 1135.2 1660 1131.73C1660 1131.2 1297.07 1130.67 853.333 1130.67C409.733 1130.67 46.6666 1131.2 46.6666 1131.73Z" fill="#F43F5E"/>
<path d="M139.733 1321.6C147.333 1333.6 174.267 1370.53 189.2 1389.07L206.133 1410H853.333H1500.53L1517.47 1389.07C1532.4 1370.53 1559.33 1333.6 1566.93 1321.6L1569.6 1317.33H853.333H137.067L139.733 1321.6Z" fill="#F43F5E"/>
<path d="M304 1506C306.533 1509.07 333.333 1530.13 351.333 1543.33C372.267 1558.67 400.933 1577.47 420 1588.53L435.2 1597.33H853.333H1271.47L1286.67 1588.53C1305.73 1577.47 1334.4 1558.67 1355.33 1543.33C1373.33 1530.13 1400.13 1509.07 1402.67 1506C1404.13 1504.27 1346.4 1504 853.333 1504C360.267 1504 302.533 1504.27 304 1506Z" fill="#F43F5E"/>
</svg>
